<mxfile host="app.diagrams.net" modified="2022-03-09T10:32:58.254Z" agent="5.0 (Windows)" etag="7iSEt2dwAVDXV427bsob" version="17.0.0" type="github">
  <diagram id="iFg3x5jFra5rSXarZs0L" name="Page-1">
    <mxGraphModel dx="405" dy="448" grid="1" gridSize="10" guides="1" tooltips="1" connect="1" arrows="1" fold="1" page="1" pageScale="1" pageWidth="850" pageHeight="1100" math="0" shadow="0">
      <root>
        <mxCell id="0" />
        <mxCell id="1" parent="0" />
        <mxCell id="HIVegPUitzO2mgvNcTpA-6" style="edgeStyle=orthogonalEdgeStyle;rounded=0;orthogonalLoop=1;jettySize=auto;html=1;exitX=0.855;exitY=0.145;exitDx=0;exitDy=0;exitPerimeter=0;entryX=0;entryY=0.5;entryDx=0;entryDy=0;fontSize=24;strokeWidth=3;" edge="1" parent="1" source="HIVegPUitzO2mgvNcTpA-1" target="HIVegPUitzO2mgvNcTpA-4">
          <mxGeometry relative="1" as="geometry" />
        </mxCell>
        <mxCell id="HIVegPUitzO2mgvNcTpA-7" style="edgeStyle=orthogonalEdgeStyle;rounded=0;orthogonalLoop=1;jettySize=auto;html=1;exitX=0.855;exitY=0.855;exitDx=0;exitDy=0;exitPerimeter=0;entryX=0;entryY=0.5;entryDx=0;entryDy=0;fontSize=24;strokeWidth=3;" edge="1" parent="1" source="HIVegPUitzO2mgvNcTpA-1" target="HIVegPUitzO2mgvNcTpA-5">
          <mxGeometry relative="1" as="geometry" />
        </mxCell>
        <mxCell id="HIVegPUitzO2mgvNcTpA-1" value="" style="strokeWidth=2;html=1;shape=mxgraph.flowchart.start_2;whiteSpace=wrap;" vertex="1" parent="1">
          <mxGeometry x="30" y="80" width="30" height="30" as="geometry" />
        </mxCell>
        <mxCell id="HIVegPUitzO2mgvNcTpA-2" value="" style="strokeWidth=2;html=1;shape=mxgraph.flowchart.start_2;whiteSpace=wrap;" vertex="1" parent="1">
          <mxGeometry x="530" y="70" width="50" height="50" as="geometry" />
        </mxCell>
        <mxCell id="HIVegPUitzO2mgvNcTpA-3" value="" style="strokeWidth=2;html=1;shape=mxgraph.flowchart.start_2;whiteSpace=wrap;fillColor=#000000;" vertex="1" parent="1">
          <mxGeometry x="540" y="80" width="30" height="30" as="geometry" />
        </mxCell>
        <mxCell id="HIVegPUitzO2mgvNcTpA-10" style="edgeStyle=orthogonalEdgeStyle;rounded=0;orthogonalLoop=1;jettySize=auto;html=1;exitX=1;exitY=0.5;exitDx=0;exitDy=0;entryX=0;entryY=0.5;entryDx=0;entryDy=0;fontSize=24;strokeWidth=3;" edge="1" parent="1" source="HIVegPUitzO2mgvNcTpA-4" target="HIVegPUitzO2mgvNcTpA-8">
          <mxGeometry relative="1" as="geometry" />
        </mxCell>
        <mxCell id="HIVegPUitzO2mgvNcTpA-4" value="&lt;font size=&quot;3&quot;&gt;&lt;font style=&quot;font-size: 24px&quot;&gt;log_in&lt;/font&gt;&lt;br&gt;&lt;/font&gt;" style="rounded=1;whiteSpace=wrap;html=1;fillColor=#FFFFFF;strokeWidth=3;" vertex="1" parent="1">
          <mxGeometry x="130" y="10" width="120" height="60" as="geometry" />
        </mxCell>
        <mxCell id="HIVegPUitzO2mgvNcTpA-11" style="edgeStyle=orthogonalEdgeStyle;rounded=0;orthogonalLoop=1;jettySize=auto;html=1;exitX=1;exitY=0.5;exitDx=0;exitDy=0;entryX=0;entryY=0.5;entryDx=0;entryDy=0;fontSize=24;strokeWidth=3;" edge="1" parent="1" source="HIVegPUitzO2mgvNcTpA-5" target="HIVegPUitzO2mgvNcTpA-9">
          <mxGeometry relative="1" as="geometry" />
        </mxCell>
        <mxCell id="HIVegPUitzO2mgvNcTpA-5" value="&lt;font size=&quot;3&quot;&gt;&lt;font style=&quot;font-size: 24px&quot;&gt;sign_in&lt;/font&gt;&lt;br&gt;&lt;/font&gt;" style="rounded=1;whiteSpace=wrap;html=1;fillColor=#FFFFFF;strokeWidth=3;" vertex="1" parent="1">
          <mxGeometry x="130" y="120" width="120" height="60" as="geometry" />
        </mxCell>
        <mxCell id="HIVegPUitzO2mgvNcTpA-22" style="edgeStyle=orthogonalEdgeStyle;rounded=0;orthogonalLoop=1;jettySize=auto;html=1;exitX=1;exitY=0.5;exitDx=0;exitDy=0;entryX=0.145;entryY=0.145;entryDx=0;entryDy=0;entryPerimeter=0;fontSize=24;strokeWidth=3;" edge="1" parent="1" source="HIVegPUitzO2mgvNcTpA-8" target="HIVegPUitzO2mgvNcTpA-2">
          <mxGeometry relative="1" as="geometry" />
        </mxCell>
        <mxCell id="HIVegPUitzO2mgvNcTpA-8" value="&lt;font size=&quot;3&quot;&gt;&lt;font style=&quot;font-size: 24px&quot;&gt;verify_log_in&lt;/font&gt;&lt;br&gt;&lt;/font&gt;" style="rounded=1;whiteSpace=wrap;html=1;fillColor=#FFFFFF;strokeWidth=3;" vertex="1" parent="1">
          <mxGeometry x="300" y="10" width="160" height="60" as="geometry" />
        </mxCell>
        <mxCell id="HIVegPUitzO2mgvNcTpA-20" style="edgeStyle=orthogonalEdgeStyle;rounded=0;orthogonalLoop=1;jettySize=auto;html=1;exitX=1;exitY=0.5;exitDx=0;exitDy=0;entryX=0.145;entryY=0.855;entryDx=0;entryDy=0;entryPerimeter=0;fontSize=24;strokeWidth=3;" edge="1" parent="1" source="HIVegPUitzO2mgvNcTpA-9" target="HIVegPUitzO2mgvNcTpA-2">
          <mxGeometry relative="1" as="geometry" />
        </mxCell>
        <mxCell id="HIVegPUitzO2mgvNcTpA-9" value="&lt;div&gt;&lt;font size=&quot;3&quot;&gt;&lt;font style=&quot;font-size: 24px&quot;&gt;register_new_&lt;/font&gt;&lt;/font&gt;&lt;/div&gt;&lt;div&gt;&lt;font size=&quot;3&quot;&gt;&lt;font style=&quot;font-size: 24px&quot;&gt;user&lt;br&gt;&lt;/font&gt;&lt;/font&gt;&lt;/div&gt;" style="rounded=1;whiteSpace=wrap;html=1;fillColor=#FFFFFF;strokeWidth=3;" vertex="1" parent="1">
          <mxGeometry x="300" y="120" width="160" height="60" as="geometry" />
        </mxCell>
      </root>
    </mxGraphModel>
  </diagram>
</mxfile>
